<?xml version="1.0" encoding="utf-8"?>
<!-- Generator: Adobe Illustrator 19.0.0, SVG Export Plug-In . SVG Version: 6.00 Build 0)  -->
<!DOCTYPE svg PUBLIC "-//W3C//DTD SVG 1.1//EN" "http://www.w3.org/Graphics/SVG/1.1/DTD/svg11.dtd">
<svg version="1.1" id="Layer_1" xmlns="http://www.w3.org/2000/svg" xmlns:xlink="http://www.w3.org/1999/xlink" x="0px" y="0px"
	 viewBox="0 0 750 250" style="enable-background:new 0 0 750 250;" xml:space="preserve">
<style type="text/css">
	.st0{fill:#0085BC;}
	.st1{fill:#FFFFFF;}
</style>
<g id="XMLID_29_">
	<path id="XMLID_50_" class="st0" d="M254.4,142.1c1,1.7,2.4,3,4,4c1.7,1,3.5,1.7,5.6,2.1c2.1,0.4,4.2,0.6,6.5,0.6
		c1.7,0,3.5-0.1,5.4-0.4c1.9-0.3,3.6-0.7,5.2-1.4c1.6-0.7,2.9-1.7,3.9-3c1-1.3,1.5-3,1.5-5.1c0-2.8-1.1-5-3.2-6.4
		c-2.1-1.5-4.8-2.6-8-3.5c-3.2-0.9-6.7-1.7-10.4-2.4c-3.8-0.7-7.2-1.7-10.4-3.1c-3.2-1.3-5.9-3.2-8-5.6c-2.1-2.4-3.2-5.7-3.2-10
		c0-3.3,0.7-6.2,2.2-8.6c1.5-2.4,3.4-4.3,5.8-5.8c2.3-1.5,5-2.6,7.9-3.3c2.9-0.7,5.9-1.1,8.8-1.1c3.8,0,7.2,0.3,10.4,1
		c3.2,0.6,6,1.8,8.4,3.3c2.4,1.6,4.4,3.7,5.8,6.4c1.5,2.7,2.3,6,2.6,10.1h-10.9c-0.2-2.1-0.7-3.9-1.7-5.3c-0.9-1.4-2.1-2.5-3.6-3.4
		c-1.5-0.9-3.1-1.5-4.8-1.9s-3.5-0.6-5.3-0.6c-1.6,0-3.3,0.1-4.9,0.4c-1.7,0.3-3.2,0.7-4.5,1.3c-1.4,0.6-2.5,1.5-3.3,2.6
		c-0.9,1.1-1.3,2.5-1.3,4.2c0,1.9,0.7,3.4,2,4.7c1.3,1.2,3,2.3,5.1,3.1c2,0.8,4.4,1.5,6.9,2c2.6,0.6,5.1,1.1,7.7,1.7
		c2.7,0.6,5.4,1.3,8,2.2c2.6,0.9,4.9,2,6.9,3.4c2,1.4,3.6,3.2,4.9,5.3c1.2,2.1,1.9,4.8,1.9,7.9c0,4-0.8,7.3-2.5,10
		c-1.7,2.6-3.8,4.8-6.5,6.4c-2.7,1.6-5.7,2.8-9.1,3.4c-3.4,0.6-6.7,1-10.1,1c-3.7,0-7.2-0.4-10.5-1.2s-6.3-2-8.8-3.8
		c-2.6-1.7-4.6-4.1-6.1-6.9c-1.5-2.9-2.4-6.3-2.6-10.4h10.9C252.8,138.4,253.4,140.4,254.4,142.1z"/>
	<path id="XMLID_47_" class="st0" d="M314,78.7V65.4h10.9v13.3H314z M324.8,90.6v66.2H314V90.6H324.8z"/>
	<path id="XMLID_43_" class="st0" d="M394.6,175.6c-5,5.4-12.7,8.1-23.3,8.1c-3.1,0-6.2-0.3-9.4-1c-3.2-0.7-6.1-1.8-8.7-3.3
		c-2.6-1.5-4.8-3.5-6.5-6c-1.7-2.5-2.6-5.5-2.8-9.1h10.9c0.1,2,0.7,3.6,1.9,5c1.2,1.4,2.6,2.5,4.2,3.3c1.7,0.9,3.5,1.5,5.4,1.9
		c2,0.4,3.8,0.6,5.6,0.6c3.6,0,6.6-0.6,9.1-1.9c2.5-1.2,4.5-2.9,6.1-5.1c1.6-2.2,2.8-4.8,3.5-7.9c0.7-3.1,1.1-6.4,1.1-10.1v-4.4
		h-0.3c-1.9,4.1-4.7,7.1-8.5,9c-3.8,1.9-7.8,2.9-12.1,2.9c-5,0-9.3-0.9-12.9-2.7c-3.7-1.8-6.7-4.2-9.2-7.2c-2.5-3-4.3-6.6-5.6-10.6
		c-1.2-4.1-1.9-8.3-1.9-12.9c0-3.9,0.5-8,1.5-12.1c1-4.1,2.7-7.9,5.1-11.3c2.4-3.4,5.5-6.1,9.5-8.3c3.9-2.2,8.8-3.3,14.5-3.3
		c4.2,0,8,0.9,11.5,2.8c3.5,1.8,6.2,4.6,8.2,8.3h0.1v-9.5h10.2v60.6C402.1,162.1,399.6,170.2,394.6,175.6z M380.7,145.8
		c2.5-1.5,4.5-3.5,6.1-5.9c1.5-2.4,2.7-5.2,3.4-8.3c0.7-3.1,1.1-6.1,1.1-9.2c0-2.9-0.3-5.8-1-8.6c-0.7-2.8-1.8-5.4-3.3-7.6
		c-1.5-2.3-3.4-4.1-5.8-5.4c-2.4-1.4-5.3-2-8.7-2c-3.5,0-6.5,0.7-9,2c-2.5,1.3-4.5,3.1-6.1,5.3c-1.6,2.2-2.7,4.8-3.5,7.7
		c-0.7,2.9-1.1,5.9-1.1,9.1c0,3,0.3,6,0.9,9c0.6,3,1.6,5.7,3.1,8.1c1.5,2.4,3.4,4.4,5.8,5.9c2.4,1.5,5.4,2.2,9,2.2
		C375.2,148,378.2,147.3,380.7,145.8z"/>
	<path id="XMLID_41_" class="st0" d="M431.9,90.6v10.5h0.3c4.5-8,11.7-12,21.5-12c4.4,0,8,0.6,10.9,1.8c2.9,1.2,5.3,2.9,7,5
		c1.8,2.1,3.1,4.7,3.8,7.6c0.7,2.9,1.1,6.2,1.1,9.8v43.5h-10.9V112c0-4.1-1.2-7.3-3.6-9.7c-2.4-2.4-5.7-3.6-9.9-3.6
		c-3.3,0-6.2,0.5-8.6,1.5c-2.4,1-4.5,2.5-6.1,4.4c-1.6,1.9-2.8,4.1-3.7,6.6c-0.8,2.5-1.2,5.3-1.2,8.3v37.4h-10.9V90.6H431.9z"/>
	<path id="XMLID_39_" class="st0" d="M494.1,100.4c1.1-3.1,2.7-5.8,4.9-8c2.2-2.3,5-4,8.3-5.3c3.3-1.3,7.1-1.9,11.3-1.9
		c3.5,0,6.7,0.5,9.7,1.4c3,0.9,5.7,2.2,7.9,3.9c2.3,1.7,4,3.9,5.4,6.4c1.3,2.6,2,5.5,2,8.9c0,3.2-0.5,6-1.6,8.4
		c-1.1,2.4-2.5,4.6-4.3,6.5c-1.8,1.9-3.9,3.7-6.2,5.2c-2.3,1.6-4.7,3-7.2,4.5c-2.5,1.4-5,2.7-7.4,4c-2.5,1.3-4.8,2.7-6.8,4.2
		c-2.1,1.5-3.8,3.1-5.3,4.8c-1.5,1.7-2.4,3.7-2.9,5.9h41v7.6h-52.2c0.4-4.2,1.2-7.9,2.5-10.9c1.3-3,3-5.6,5-7.8
		c2-2.2,4.3-4.2,6.9-5.9c2.6-1.7,5.2-3.3,8-4.8c3.4-1.9,6.3-3.6,8.9-5.2c2.6-1.6,4.7-3.2,6.4-4.8c1.7-1.6,3-3.4,3.8-5.3
		c0.9-1.9,1.3-4.1,1.3-6.6c0-2-0.4-3.7-1.2-5.3c-0.8-1.6-1.9-3-3.3-4.1c-1.4-1.1-3-2-4.9-2.6c-1.9-0.6-3.9-0.9-6-0.9
		c-2.8,0-5.2,0.5-7.2,1.6c-2,1-3.6,2.4-4.9,4.1c-1.3,1.7-2.2,3.6-2.8,5.7c-0.6,2.1-0.8,4.3-0.7,6.4h-9.6
		C492.6,106.9,493,103.5,494.1,100.4z"/>
	<path id="XMLID_36_" class="st0" d="M563.1,105.5h0.4c0.5-1.6,1.3-3.5,2.5-5.4c1.1-2,2.7-3.8,4.6-5.5c1.9-1.7,4.2-3.1,6.8-4.2
		c2.7-1.1,5.7-1.7,9.2-1.7c4.8,0,9.1,1,12.6,2.9c3.6,1.9,6.5,4.5,8.9,7.7c2.3,3.2,4.1,6.9,5.2,11.2c1.2,4.2,1.7,8.7,1.7,13.4
		c0,5.1-0.6,9.8-1.7,14c-1.2,4.2-2.9,7.9-5.3,11c-2.3,3.1-5.3,5.5-8.9,7.2c-3.6,1.7-7.8,2.6-12.7,2.6c-5.3,0-10-1.2-14.1-3.6
		c-4.1-2.4-7.1-6.4-9-11.8h-0.2l0,37.7h-4.6V90.2h4.6V105.5z M586.5,154.1c4.1,0,7.7-0.8,10.7-2.5c3-1.6,5.5-3.8,7.4-6.6
		s3.4-6,4.3-9.7c0.9-3.7,1.4-7.6,1.4-11.7c0-3.8-0.5-7.5-1.4-11.2c-0.9-3.7-2.3-7-4.2-9.9c-1.9-2.9-4.3-5.2-7.3-7
		c-3-1.8-6.6-2.7-10.9-2.7c-4.2,0-7.8,0.9-10.7,2.6c-3,1.7-5.4,4-7.2,6.9c-1.9,2.9-3.2,6.1-4,9.8c-0.8,3.7-1.2,7.5-1.2,11.5
		c0,4,0.4,7.8,1.1,11.5c0.7,3.7,2,6.9,3.8,9.7c1.8,2.8,4.2,5.1,7.2,6.7C578.3,153.3,582,154.1,586.5,154.1z"/>
	<path id="XMLID_33_" class="st0" d="M668,143.6h-0.2c-0.7,2-1.8,3.9-3.2,5.6c-1.4,1.8-3.1,3.4-5.1,4.7c-2,1.4-4.3,2.5-6.8,3.2
		c-2.5,0.8-5.3,1.2-8.4,1.2c-6.7,0-12-1.5-15.7-4.6c-3.7-3.1-5.5-7.8-5.5-14.2c0-3.9,0.7-7.1,2.2-9.5c1.5-2.5,3.3-4.4,5.6-5.8
		c2.3-1.4,4.8-2.4,7.5-3c2.8-0.6,5.4-1,7.9-1.3l7.3-0.6c3.4-0.3,6-0.7,7.9-1.2c1.9-0.6,3.4-1.3,4.4-2.3c1-1,1.6-2.3,1.9-3.8
		c0.2-1.6,0.4-3.5,0.4-5.8c0-1.8-0.3-3.5-1-5.1c-0.7-1.6-1.7-2.9-3.1-4.1c-1.4-1.2-3.2-2.2-5.4-2.9c-2.2-0.7-4.9-1-8.1-1
		c-5.7,0-10.2,1.5-13.7,4.4s-5.4,7.4-5.7,13.4h-4.7c0.3-7.3,2.6-12.9,6.7-16.5c4.1-3.7,10-5.5,17.7-5.5c7.6,0,13.2,1.6,16.7,4.7
		c3.5,3.2,5.2,7.3,5.2,12.4v38.8c0,1,0,1.9,0.1,2.9c0,1,0.2,1.8,0.4,2.6c0.2,0.8,0.7,1.4,1.2,1.9c0.6,0.5,1.4,0.7,2.5,0.7
		c0.8,0,2-0.1,3.5-0.4v4.2c-1.2,0.3-2.5,0.5-3.8,0.5c-1.9,0-3.4-0.3-4.5-0.8c-1.1-0.5-2-1.2-2.5-2.1c-0.6-0.9-1-1.9-1.2-3
		c-0.2-1.2-0.3-2.4-0.3-3.8V143.6z M668,119c-1.2,1.5-2.9,2.5-5.2,3c-2.3,0.5-4.9,0.9-7.8,1.2l-7.9,0.8c-2.3,0.3-4.6,0.6-6.9,1.1
		c-2.3,0.5-4.4,1.3-6.2,2.4c-1.8,1.1-3.3,2.7-4.5,4.6c-1.2,1.9-1.7,4.5-1.7,7.6c0,4.9,1.5,8.6,4.4,11c3,2.4,7,3.6,12.2,3.6
		c5.3,0,9.6-1,12.7-3s5.5-4.4,7.1-7c1.6-2.6,2.7-5.2,3.1-7.7c0.5-2.5,0.7-4.1,0.7-5V119z"/>
	<path id="XMLID_30_" class="st0" d="M679.9,90.2h5.5L709,151l21.7-60.8h5.3L708.9,164c-1.3,3.3-2.5,6.1-3.6,8.5
		c-1.1,2.4-2.4,4.1-3.8,5.3c-1.6,1.4-3.6,2.2-5.9,2.5c-2.3,0.3-5.2,0.5-8.9,0.5v-4.3c3.4,0,6-0.3,7.9-0.8c1.9-0.6,3.7-1.7,5.3-3.4
		c0.9-1,1.8-2.7,2.8-5.3c1-2.6,2.2-6,3.7-10.4L679.9,90.2z"/>
</g>
<g id="XMLID_6_">
	<rect id="XMLID_28_" x="30" y="43.6" class="st0" width="159.4" height="159.7"/>
	<g id="XMLID_26_">
		<path id="XMLID_27_" class="st1" d="M29.9,203.5h15.9l110.6-76.7l27.9-19.5c-0.4,1.4-1,3.1-1.8,5.3l-22.3,47.2
			c-1.1,2.3-6,13.8,0.9,20.9c7,7.1,19,2.7,27.7-1.3l1-0.5V162l-7.4,3.7c-4.8,2.2-7.9,3.1-9.6,3.4c0.2-1,0.6-2.1,1-3l16-33.9V90
			c-4-0.3-8.4,1.3-12,3.6l-29.8,20.9L47.6,184L152.2,43.6h-30.5l-91.7,73.3v19.2l85.5-68.4L29.9,182.5V203.5z"/>
	</g>
</g>
</svg>
