<?xml version="1.0" encoding="utf-8"?>
<!-- Generator: Adobe Illustrator 19.0.0, SVG Export Plug-In . SVG Version: 6.00 Build 0)  -->
<!DOCTYPE svg PUBLIC "-//W3C//DTD SVG 1.1//EN" "http://www.w3.org/Graphics/SVG/1.1/DTD/svg11.dtd">
<svg version="1.1" id="Layer_1" xmlns="http://www.w3.org/2000/svg" xmlns:xlink="http://www.w3.org/1999/xlink" x="0px" y="0px"
	 viewBox="0 0 750 250" style="enable-background:new 0 0 750 250;" xml:space="preserve">
<style type="text/css">
	.st0{fill:#FFFFFF;}
	.st1{fill:#0085BC;}
</style>
<g id="XMLID_1_">
	<g id="XMLID_2_">
		<path id="XMLID_3_" class="st0" d="M251.3,144c1,1.6,2.3,2.9,3.9,3.8c1.6,0.9,3.4,1.6,5.4,2c2,0.4,4.1,0.6,6.2,0.6
			c1.6,0,3.4-0.1,5.2-0.4c1.8-0.2,3.5-0.7,5-1.4c1.5-0.7,2.8-1.6,3.8-2.9c1-1.3,1.5-2.9,1.5-4.9c0-2.7-1-4.8-3.1-6.2
			c-2.1-1.4-4.6-2.5-7.7-3.4c-3.1-0.9-6.5-1.6-10.1-2.4c-3.6-0.7-7-1.7-10.1-3c-3.1-1.3-5.7-3.1-7.7-5.4c-2.1-2.3-3.1-5.5-3.1-9.7
			c0-3.2,0.7-6,2.2-8.3c1.4-2.3,3.3-4.2,5.6-5.6c2.3-1.4,4.8-2.5,7.7-3.2c2.8-0.7,5.7-1.1,8.5-1.1c3.6,0,7,0.3,10,0.9
			c3.1,0.6,5.8,1.7,8.1,3.2c2.3,1.5,4.2,3.6,5.6,6.2c1.4,2.6,2.2,5.8,2.5,9.7h-10.5c-0.2-2.1-0.7-3.8-1.6-5.1
			c-0.9-1.4-2.1-2.5-3.5-3.3c-1.4-0.8-3-1.4-4.6-1.8c-1.7-0.4-3.4-0.6-5.1-0.6c-1.6,0-3.2,0.1-4.8,0.4c-1.6,0.2-3.1,0.7-4.4,1.3
			c-1.3,0.6-2.4,1.4-3.2,2.5c-0.8,1-1.2,2.4-1.2,4c0,1.8,0.6,3.3,1.9,4.5c1.3,1.2,2.9,2.2,4.9,3c2,0.8,4.2,1.4,6.7,2
			c2.5,0.5,5,1.1,7.4,1.7c2.6,0.6,5.2,1.3,7.7,2.1c2.5,0.8,4.7,1.9,6.7,3.3c1.9,1.4,3.5,3.1,4.7,5.1c1.2,2.1,1.8,4.6,1.8,7.7
			c0,3.9-0.8,7.1-2.4,9.7c-1.6,2.6-3.7,4.6-6.3,6.2c-2.6,1.6-5.5,2.7-8.8,3.3c-3.3,0.6-6.5,0.9-9.7,0.9c-3.5,0-6.9-0.4-10.1-1.1
			c-3.2-0.7-6.1-2-8.5-3.6c-2.5-1.7-4.5-3.9-5.9-6.7s-2.3-6.1-2.5-10.1h10.5C249.8,140.4,250.3,142.4,251.3,144z"/>
		<path id="XMLID_7_" class="st0" d="M308.8,82.8V69.9h10.5v12.9H308.8z M319.4,94.3v64h-10.5v-64H319.4z"/>
		<path id="XMLID_10_" class="st0" d="M386.8,176.3c-4.8,5.2-12.3,7.8-22.5,7.8c-3,0-6-0.3-9.1-1c-3.1-0.7-5.9-1.7-8.4-3.2
			c-2.5-1.5-4.6-3.4-6.3-5.8c-1.6-2.4-2.6-5.3-2.7-8.8h10.5c0.1,1.9,0.7,3.5,1.8,4.8c1.1,1.3,2.5,2.4,4.1,3.2
			c1.6,0.8,3.4,1.4,5.3,1.8c1.9,0.4,3.7,0.6,5.4,0.6c3.5,0,6.4-0.6,8.8-1.8c2.4-1.2,4.4-2.8,5.9-4.9c1.6-2.1,2.7-4.6,3.4-7.6
			c0.7-3,1.1-6.2,1.1-9.8v-4.2h-0.2c-1.8,4-4.6,6.9-8.2,8.7c-3.7,1.9-7.6,2.8-11.7,2.8c-4.8,0-9-0.9-12.5-2.6
			c-3.5-1.7-6.5-4.1-8.9-7c-2.4-2.9-4.2-6.4-5.4-10.3c-1.2-3.9-1.8-8.1-1.8-12.4c0-3.8,0.5-7.7,1.5-11.7c1-4,2.6-7.6,5-10.9
			c2.3-3.3,5.4-5.9,9.2-8c3.8-2.1,8.5-3.2,14-3.2c4,0,7.8,0.9,11.1,2.7c3.4,1.8,6,4.4,7.9,8h0.1v-9.2h9.9v58.5
			C394,163.3,391.6,171.1,386.8,176.3z M373.4,147.6c2.4-1.4,4.4-3.3,5.9-5.7c1.5-2.4,2.6-5,3.3-8c0.7-3,1.1-5.9,1.1-8.9
			c0-2.8-0.3-5.6-1-8.3c-0.7-2.7-1.7-5.2-3.2-7.4c-1.4-2.2-3.3-3.9-5.6-5.3c-2.3-1.3-5.1-2-8.4-2c-3.4,0-6.3,0.6-8.7,1.9
			c-2.4,1.3-4.4,3-5.9,5.1c-1.5,2.1-2.6,4.6-3.3,7.4c-0.7,2.8-1.1,5.7-1.1,8.8c0,2.9,0.3,5.8,0.9,8.7c0.6,2.9,1.6,5.5,3,7.9
			c1.4,2.3,3.3,4.2,5.6,5.7c2.3,1.4,5.2,2.2,8.7,2.2C368,149.7,370.9,149,373.4,147.6z"/>
		<path id="XMLID_13_" class="st0" d="M422.8,94.3v10.1h0.2c4.4-7.8,11.3-11.6,20.8-11.6c4.2,0,7.7,0.6,10.5,1.7
			c2.8,1.2,5.1,2.8,6.8,4.8c1.7,2.1,2.9,4.5,3.6,7.4c0.7,2.8,1.1,6,1.1,9.5v42.1h-10.5V115c0-4-1.2-7.1-3.5-9.4
			c-2.3-2.3-5.5-3.5-9.5-3.5c-3.2,0-6,0.5-8.4,1.5s-4.3,2.4-5.9,4.2c-1.6,1.8-2.7,3.9-3.5,6.4c-0.8,2.4-1.2,5.1-1.2,8v36.1h-10.5
			v-64H422.8z"/>
		<path id="XMLID_15_" class="st0" d="M482.9,103.7c1-3,2.6-5.6,4.7-7.8c2.1-2.2,4.8-3.9,8-5.1c3.2-1.2,6.8-1.9,10.9-1.9
			c3.3,0,6.5,0.4,9.4,1.3c2.9,0.9,5.5,2.2,7.7,3.8c2.2,1.7,3.9,3.7,5.2,6.2c1.3,2.5,1.9,5.3,1.9,8.6c0,3.1-0.5,5.8-1.6,8.1
			c-1.1,2.3-2.5,4.4-4.2,6.3c-1.7,1.9-3.7,3.5-6,5c-2.3,1.5-4.6,2.9-7,4.3c-2.4,1.3-4.8,2.6-7.2,3.9c-2.4,1.3-4.6,2.6-6.6,4.1
			c-2,1.4-3.7,3-5.1,4.6c-1.4,1.7-2.3,3.6-2.8,5.7h39.6v7.3h-50.4c0.4-4.1,1.2-7.6,2.5-10.5c1.3-2.9,2.9-5.4,4.8-7.6
			c2-2.2,4.2-4,6.6-5.7c2.5-1.6,5-3.2,7.7-4.6c3.3-1.8,6.1-3.5,8.6-5c2.5-1.5,4.5-3.1,6.2-4.6c1.6-1.6,2.9-3.3,3.7-5.1
			c0.8-1.8,1.3-3.9,1.3-6.4c0-1.9-0.4-3.6-1.2-5.1c-0.8-1.5-1.9-2.9-3.2-4c-1.3-1.1-2.9-2-4.7-2.5c-1.8-0.6-3.7-0.9-5.8-0.9
			c-2.7,0-5,0.5-6.9,1.5c-1.9,1-3.5,2.3-4.7,4c-1.2,1.6-2.1,3.5-2.7,5.5c-0.5,2.1-0.8,4.1-0.7,6.2h-9.3
			C481.5,110,481.9,106.7,482.9,103.7z"/>
		<path id="XMLID_17_" class="st0" d="M549.6,108.6h0.4c0.5-1.6,1.3-3.3,2.4-5.3c1.1-1.9,2.6-3.7,4.4-5.3c1.8-1.6,4-3,6.6-4.1
			c2.6-1.1,5.5-1.6,8.9-1.6c4.7,0,8.7,0.9,12.2,2.8c3.5,1.8,6.3,4.3,8.6,7.4c2.3,3.1,3.9,6.7,5.1,10.8c1.1,4.1,1.7,8.4,1.7,12.9
			c0,4.9-0.6,9.4-1.7,13.5c-1.1,4.1-2.8,7.6-5.1,10.6c-2.3,3-5.1,5.3-8.6,7c-3.5,1.7-7.5,2.5-12.2,2.5c-5.1,0-9.6-1.2-13.6-3.5
			c-4-2.3-6.9-6.1-8.7-11.4h-0.2l0,36.5h-4.4V93.9h4.4V108.6z M572.1,155.6c4,0,7.4-0.8,10.3-2.4c2.9-1.6,5.3-3.7,7.2-6.4
			c1.9-2.7,3.3-5.8,4.2-9.3c0.9-3.5,1.4-7.3,1.4-11.3c0-3.7-0.4-7.3-1.3-10.8c-0.9-3.6-2.2-6.7-4.1-9.5c-1.8-2.8-4.2-5.1-7.1-6.8
			c-2.9-1.7-6.4-2.6-10.6-2.6c-4.1,0-7.5,0.8-10.4,2.5c-2.9,1.7-5.2,3.9-7,6.6c-1.8,2.8-3.1,5.9-3.9,9.5c-0.8,3.6-1.2,7.2-1.2,11.1
			c0,3.8,0.4,7.5,1.1,11.1c0.7,3.6,1.9,6.7,3.6,9.4c1.7,2.7,4,4.9,6.9,6.5C564.2,154.8,567.8,155.6,572.1,155.6z"/>
		<path id="XMLID_20_" class="st0" d="M650.9,145.5h-0.2c-0.7,1.9-1.7,3.7-3.1,5.5c-1.4,1.7-3,3.2-4.9,4.6s-4.1,2.4-6.6,3.1
			c-2.5,0.8-5.2,1.1-8.1,1.1c-6.5,0-11.5-1.5-15.1-4.4c-3.6-3-5.4-7.5-5.4-13.7c0-3.8,0.7-6.8,2.1-9.2c1.4-2.4,3.2-4.3,5.4-5.6
			c2.2-1.4,4.6-2.4,7.3-2.9c2.7-0.6,5.2-1,7.7-1.3l7-0.6c3.3-0.3,5.8-0.6,7.7-1.2c1.9-0.5,3.3-1.3,4.2-2.3c1-1,1.5-2.2,1.8-3.7
			c0.2-1.5,0.4-3.4,0.4-5.6c0-1.8-0.3-3.4-1-4.9c-0.6-1.5-1.6-2.8-3-4c-1.4-1.2-3.1-2.1-5.2-2.8c-2.1-0.7-4.8-1-7.9-1
			c-5.5,0-9.9,1.4-13.3,4.3c-3.4,2.8-5.2,7.1-5.5,12.9h-4.5c0.3-7.1,2.5-12.4,6.5-16c4-3.5,9.7-5.3,17.1-5.3
			c7.4,0,12.8,1.5,16.1,4.6c3.4,3.1,5.1,7,5.1,12v37.5c0,0.9,0,1.8,0.1,2.8c0,0.9,0.2,1.8,0.4,2.5c0.2,0.8,0.6,1.4,1.2,1.8
			c0.6,0.5,1.3,0.7,2.4,0.7c0.8,0,1.9-0.1,3.3-0.4v4c-1.2,0.3-2.4,0.5-3.7,0.5c-1.8,0-3.3-0.3-4.3-0.8c-1.1-0.5-1.9-1.2-2.4-2
			c-0.6-0.8-0.9-1.8-1.1-2.9c-0.2-1.1-0.3-2.4-0.3-3.7V145.5z M650.9,121.7c-1.1,1.4-2.8,2.4-5.1,2.9c-2.3,0.5-4.8,0.9-7.6,1.1
			l-7.6,0.8c-2.2,0.3-4.4,0.6-6.7,1.1c-2.2,0.5-4.2,1.2-6,2.3c-1.8,1.1-3.2,2.6-4.3,4.5c-1.1,1.9-1.7,4.3-1.7,7.3
			c0,4.8,1.4,8.3,4.3,10.6c2.9,2.3,6.8,3.4,11.8,3.4c5.2,0,9.2-1,12.3-2.9c3-2,5.3-4.2,6.9-6.8c1.6-2.5,2.6-5,3-7.4
			c0.4-2.4,0.7-4,0.7-4.8V121.7z"/>
		<path id="XMLID_24_" class="st0" d="M662.4,93.9h5.4l22.7,58.8l21-58.8h5.1l-26.2,71.3c-1.3,3.2-2.4,5.9-3.5,8.2
			c-1.1,2.3-2.3,4-3.6,5.1c-1.6,1.3-3.5,2.1-5.7,2.4c-2.2,0.3-5.1,0.4-8.6,0.4v-4.1c3.3,0,5.8-0.3,7.6-0.8c1.8-0.5,3.5-1.7,5.1-3.3
			c0.9-0.9,1.8-2.6,2.7-5.1c1-2.5,2.1-5.8,3.6-10.1L662.4,93.9z"/>
	</g>
	<g id="XMLID_5_">
		<rect id="XMLID_22_" x="34.4" y="47.8" class="st0" width="154" height="154.3"/>
		<g id="XMLID_45_">
			<path id="XMLID_31_" class="st1" d="M34.4,202.2h15.4l106.8-74.1l26.9-18.8c-0.4,1.4-0.9,3-1.7,5.1L160.2,160
				c-1,2.2-5.8,13.4,0.9,20.2c6.8,6.9,18.4,2.6,26.8-1.2l0.9-0.5v-16.3l-7.2,3.6c-4.7,2.2-7.6,3-9.3,3.3c0.2-1,0.6-2,1-2.9
				l15.5-32.7V92.6c-3.9-0.3-8.1,1.3-11.6,3.5l-28.8,20.2l-96.9,67.2L152.5,47.8H123l-88.6,70.9v18.6L117,71.1L34.4,182V202.2z"/>
		</g>
	</g>
</g>
</svg>
