<?xml version="1.0" encoding="utf-8"?>
<!-- Generator: Adobe Illustrator 19.0.0, SVG Export Plug-In . SVG Version: 6.00 Build 0)  -->
<!DOCTYPE svg PUBLIC "-//W3C//DTD SVG 1.1//EN" "http://www.w3.org/Graphics/SVG/1.1/DTD/svg11.dtd">
<svg version="1.1" id="Layer_1" xmlns="http://www.w3.org/2000/svg" xmlns:xlink="http://www.w3.org/1999/xlink" x="0px" y="0px"
	 viewBox="0 0 56.7 56.7" style="enable-background:new 0 0 56.7 56.7;" xml:space="preserve">
<style type="text/css">
	.st0{fill:#FFFFFF;}
	.st1{fill:#0085BC;}
</style>
<rect id="XMLID_22_" y="0" class="st0" width="56.7" height="56.7"/>
<g id="XMLID_45_">
	<path id="XMLID_31_" class="st1" d="M0,56.7h5.6l39.2-27.2l9.9-6.9c-0.1,0.5-0.3,1.1-0.6,1.9l-7.9,16.7c-0.4,0.8-2.1,4.9,0.3,7.4
		c2.5,2.5,6.8,1,9.8-0.5l0.3-0.2v-6L54,43.3c-1.7,0.8-2.8,1.1-3.4,1.2c0.1-0.4,0.2-0.7,0.4-1.1l5.7-12v-15c-1.4-0.1-3,0.5-4.2,1.3
		l-10.6,7.4L6.3,49.8L43.4,0H32.6L0,26v6.8L30.4,8.6L0,49.3V56.7z"/>
</g>
</svg>
