<?xml version="1.0" encoding="utf-8"?>
<!-- Generator: Adobe Illustrator 19.0.0, SVG Export Plug-In . SVG Version: 6.00 Build 0)  -->
<!DOCTYPE svg PUBLIC "-//W3C//DTD SVG 1.1//EN" "http://www.w3.org/Graphics/SVG/1.1/DTD/svg11.dtd">
<svg version="1.1" id="Layer_1" xmlns="http://www.w3.org/2000/svg" xmlns:xlink="http://www.w3.org/1999/xlink" x="0px" y="0px"
	 viewBox="0 0 750 250" style="enable-background:new 0 0 750 250;" xml:space="preserve">
<style type="text/css">
	.st0{fill:#0085BC;}
</style>
<g id="XMLID_29_">
	<path id="XMLID_50_" class="st0" d="M71.4,147.7c1.3,2.2,3.1,3.9,5.2,5.1c2.2,1.3,4.6,2.2,7.3,2.7c2.7,0.6,5.5,0.8,8.4,0.8
		c2.2,0,4.5-0.2,7-0.5c2.4-0.3,4.7-0.9,6.7-1.8c2-0.9,3.7-2.2,5.1-3.9c1.3-1.7,2-3.9,2-6.5c0-3.6-1.4-6.4-4.1-8.3
		c-2.8-1.9-6.2-3.4-10.4-4.6c-4.1-1.2-8.7-2.2-13.5-3.2c-4.9-0.9-9.4-2.3-13.5-4c-4.1-1.7-7.6-4.1-10.4-7.2
		c-2.8-3.1-4.1-7.4-4.1-12.9c0-4.3,1-8,2.9-11.1c1.9-3.1,4.4-5.6,7.5-7.5c3-1.9,6.5-3.4,10.3-4.3c3.8-0.9,7.6-1.4,11.4-1.4
		c4.9,0,9.3,0.4,13.4,1.2c4.1,0.8,7.7,2.3,10.9,4.3c3.1,2,5.7,4.8,7.5,8.3c1.9,3.5,3,7.8,3.3,13h-14.1c-0.2-2.8-0.9-5.1-2.2-6.9
		c-1.2-1.8-2.8-3.3-4.6-4.4c-1.9-1.1-4-1.9-6.2-2.4c-2.3-0.5-4.6-0.7-6.9-0.7c-2.1,0-4.2,0.2-6.4,0.5c-2.2,0.3-4.1,0.9-5.9,1.7
		c-1.8,0.8-3.2,1.9-4.3,3.3c-1.1,1.4-1.7,3.2-1.7,5.4c0,2.4,0.9,4.4,2.6,6.1c1.7,1.6,3.9,2.9,6.5,4c2.7,1.1,5.6,1.9,9,2.7
		c3.3,0.7,6.6,1.5,9.9,2.2c3.5,0.8,7,1.7,10.4,2.8c3.4,1.1,6.4,2.6,9,4.4c2.6,1.8,4.7,4.1,6.3,6.9c1.6,2.8,2.4,6.2,2.4,10.3
		c0,5.2-1.1,9.5-3.2,12.9c-2.2,3.4-5,6.2-8.5,8.3c-3.5,2.1-7.4,3.6-11.8,4.4c-4.4,0.8-8.7,1.2-13,1.2c-4.8,0-9.3-0.5-13.6-1.5
		c-4.3-1-8.1-2.6-11.4-4.9c-3.3-2.3-6-5.3-8-9c-2-3.7-3.1-8.2-3.3-13.5h14.1C69.4,142.9,70.1,145.6,71.4,147.7z"/>
	<path id="XMLID_47_" class="st0" d="M148.5,65.7V48.5h14.1v17.2H148.5z M162.6,81.1v85.7h-14.1V81.1H162.6z"/>
	<path id="XMLID_43_" class="st0" d="M253,191.1c-6.4,7-16.5,10.4-30.2,10.4c-4,0-8-0.4-12.2-1.3c-4.1-0.9-7.9-2.3-11.3-4.3
		c-3.4-2-6.2-4.6-8.4-7.8c-2.2-3.2-3.4-7.1-3.6-11.8h14.1c0.1,2.5,0.9,4.7,2.4,6.5c1.5,1.8,3.3,3.2,5.5,4.3c2.2,1.1,4.5,1.9,7,2.4
		c2.5,0.5,5,0.7,7.3,0.7c4.6,0,8.6-0.8,11.8-2.4c3.2-1.6,5.9-3.8,8-6.6c2.1-2.8,3.6-6.2,4.6-10.2c0.9-4,1.4-8.3,1.4-13.1v-5.6H249
		c-2.4,5.3-6.1,9.2-11,11.7c-4.9,2.5-10.1,3.7-15.7,3.7c-6.4,0-12-1.2-16.7-3.5c-4.8-2.3-8.7-5.4-11.9-9.4
		c-3.2-3.9-5.6-8.5-7.2-13.8c-1.6-5.3-2.4-10.8-2.4-16.7c0-5.1,0.7-10.3,2-15.7c1.3-5.4,3.5-10.2,6.6-14.6c3.1-4.4,7.2-8,12.3-10.8
		c5.1-2.8,11.3-4.2,18.7-4.2c5.4,0,10.4,1.2,14.9,3.6c4.5,2.4,8.1,5.9,10.6,10.7h0.2V81.1h13.3v78.4
		C262.6,173.6,259.4,184.1,253,191.1z M235,152.5c3.3-1.9,5.9-4.5,7.9-7.6c2-3.1,3.5-6.7,4.4-10.7c0.9-4,1.4-8,1.4-11.9
		c0-3.8-0.4-7.5-1.3-11.1c-0.9-3.6-2.3-6.9-4.2-9.9c-1.9-2.9-4.4-5.3-7.5-7c-3.1-1.8-6.9-2.7-11.3-2.7c-4.5,0-8.4,0.9-11.6,2.6
		c-3.2,1.7-5.8,4-7.9,6.9c-2,2.9-3.5,6.2-4.5,9.9c-0.9,3.8-1.4,7.7-1.4,11.8c0,3.9,0.4,7.7,1.2,11.6c0.8,3.9,2.1,7.4,4,10.5
		c1.9,3.1,4.4,5.7,7.5,7.6c3.1,1.9,7,2.9,11.6,2.9C227.8,155.4,231.7,154.5,235,152.5z"/>
	<path id="XMLID_41_" class="st0" d="M301.2,81.1v13.6h0.3c5.9-10.4,15.1-15.6,27.9-15.6c5.6,0,10.3,0.8,14.1,2.3
		c3.8,1.5,6.8,3.7,9.1,6.5c2.3,2.8,4,6.1,4.9,9.9c0.9,3.8,1.4,8,1.4,12.7v56.4h-14.1v-58c0-5.3-1.5-9.5-4.6-12.6
		c-3.1-3.1-7.4-4.6-12.8-4.6c-4.3,0-8,0.7-11.2,2c-3.2,1.3-5.8,3.2-7.9,5.6c-2.1,2.4-3.7,5.3-4.7,8.5c-1.1,3.3-1.6,6.8-1.6,10.7
		v48.4h-14.1V81.1H301.2z"/>
	<path id="XMLID_39_" class="st0" d="M381.7,93.8c1.4-4,3.5-7.5,6.3-10.4c2.9-2.9,6.4-5.2,10.7-6.9c4.3-1.7,9.1-2.5,14.6-2.5
		c4.5,0,8.7,0.6,12.6,1.8c3.9,1.2,7.4,2.9,10.3,5.1c2.9,2.2,5.2,5,6.9,8.3c1.7,3.3,2.6,7.2,2.6,11.5c0,4.1-0.7,7.7-2.1,10.9
		c-1.4,3.1-3.3,6-5.6,8.4c-2.3,2.5-5,4.7-8,6.7c-3,2-6.1,3.9-9.3,5.8c-3.2,1.8-6.4,3.5-9.6,5.2c-3.2,1.7-6.2,3.5-8.8,5.4
		c-2.7,1.9-5,4-6.9,6.2c-1.9,2.2-3.1,4.8-3.7,7.7h53.1v9.8h-67.6c0.5-5.5,1.6-10.2,3.3-14.1c1.7-3.9,3.9-7.3,6.5-10.1
		c2.6-2.9,5.6-5.4,8.9-7.6c3.3-2.2,6.8-4.2,10.4-6.2c4.4-2.4,8.2-4.7,11.5-6.7c3.3-2,6.1-4.1,8.2-6.2c2.2-2.1,3.8-4.4,5-6.8
		c1.1-2.4,1.7-5.3,1.7-8.5c0-2.5-0.5-4.8-1.6-6.9c-1.1-2.1-2.5-3.8-4.3-5.3c-1.8-1.5-3.9-2.6-6.3-3.4c-2.4-0.8-5-1.2-7.7-1.2
		c-3.6,0-6.7,0.7-9.3,2c-2.6,1.4-4.7,3.1-6.3,5.3c-1.7,2.2-2.8,4.6-3.6,7.4c-0.7,2.8-1,5.5-0.9,8.3h-12.4
		C379.8,102.2,380.3,97.8,381.7,93.8z"/>
	<path id="XMLID_36_" class="st0" d="M471.1,100.4h0.5c0.6-2.1,1.7-4.5,3.2-7.1c1.5-2.6,3.5-5,5.9-7.1c2.4-2.2,5.4-4,8.8-5.5
		c3.5-1.5,7.4-2.2,11.9-2.2c6.3,0,11.7,1.2,16.3,3.7c4.6,2.5,8.5,5.8,11.5,9.9c3,4.1,5.3,9,6.8,14.4c1.5,5.5,2.2,11.2,2.2,17.3
		c0,6.6-0.7,12.6-2.2,18.1c-1.5,5.5-3.8,10.2-6.8,14.2c-3,4-6.9,7.1-11.5,9.3c-4.6,2.2-10.1,3.4-16.4,3.4c-6.8,0-12.9-1.6-18.2-4.7
		c-5.3-3.1-9.2-8.2-11.7-15.3h-0.3l0,48.9h-5.9V80.6h5.9V100.4z M501.3,163.3c5.3,0,9.9-1.1,13.8-3.2c3.9-2.1,7.1-5,9.6-8.6
		c2.5-3.6,4.4-7.8,5.6-12.5c1.2-4.8,1.8-9.8,1.8-15.2c0-4.9-0.6-9.8-1.8-14.5c-1.2-4.8-3-9-5.4-12.8c-2.5-3.7-5.6-6.8-9.5-9.1
		c-3.9-2.3-8.6-3.4-14.1-3.4c-5.4,0-10.1,1.1-13.9,3.4c-3.8,2.2-7,5.2-9.4,8.9c-2.4,3.7-4.1,7.9-5.2,12.7c-1.1,4.8-1.6,9.7-1.6,14.9
		c0,5.2,0.5,10.1,1.4,14.9c1,4.8,2.6,9,4.9,12.6c2.3,3.6,5.4,6.5,9.3,8.7C490.7,162.2,495.5,163.3,501.3,163.3z"/>
	<path id="XMLID_33_" class="st0" d="M606.8,149.7h-0.3c-1,2.6-2.3,5-4.1,7.3c-1.8,2.3-4,4.3-6.6,6.1c-2.6,1.8-5.6,3.2-8.9,4.2
		c-3.3,1-6.9,1.5-10.8,1.5c-8.7,0-15.5-2-20.3-6c-4.8-4-7.2-10.1-7.2-18.4c0-5,1-9.1,2.9-12.3c1.9-3.2,4.3-5.7,7.3-7.6
		c2.9-1.8,6.2-3.2,9.7-3.9c3.6-0.8,7-1.3,10.3-1.7l9.4-0.8c4.4-0.3,7.8-0.9,10.3-1.6c2.5-0.7,4.4-1.7,5.7-3c1.3-1.3,2.1-2.9,2.4-5
		c0.3-2,0.5-4.5,0.5-7.6c0-2.3-0.4-4.5-1.3-6.5c-0.9-2-2.2-3.8-4-5.4c-1.8-1.6-4.1-2.8-7-3.7c-2.9-0.9-6.4-1.3-10.5-1.3
		c-7.3,0-13.3,1.9-17.8,5.7c-4.5,3.8-7,9.6-7.4,17.3h-6.1c0.4-9.5,3.3-16.6,8.7-21.4c5.4-4.8,13-7.1,22.9-7.1c9.9,0,17.1,2,21.6,6.1
		c4.5,4.1,6.8,9.4,6.8,16v50.2c0,1.2,0,2.5,0.1,3.7c0.1,1.2,0.2,2.4,0.6,3.4c0.3,1,0.9,1.8,1.6,2.4c0.7,0.6,1.8,0.9,3.2,0.9
		c1.1,0,2.6-0.2,4.5-0.5v5.4c-1.6,0.4-3.2,0.7-4.9,0.7c-2.4,0-4.4-0.3-5.8-1c-1.4-0.7-2.5-1.6-3.3-2.7c-0.7-1.1-1.3-2.4-1.5-3.9
		c-0.3-1.5-0.4-3.2-0.4-5V149.7z M606.8,117.8c-1.5,1.9-3.7,3.2-6.8,3.9c-3,0.7-6.4,1.2-10.1,1.5l-10.2,1c-3,0.3-6,0.8-8.9,1.4
		c-3,0.6-5.7,1.7-8.1,3.1c-2.4,1.5-4.3,3.4-5.8,6c-1.5,2.5-2.2,5.8-2.2,9.8c0,6.4,1.9,11.1,5.7,14.2c3.8,3.1,9.1,4.6,15.8,4.6
		c6.9,0,12.4-1.3,16.4-3.9c4-2.6,7.1-5.6,9.3-9.1c2.1-3.4,3.5-6.7,4.1-9.9c0.6-3.2,0.9-5.3,0.9-6.5V117.8z"/>
	<path id="XMLID_30_" class="st0" d="M622.3,80.6h7.2l30.5,78.7L688,80.6h6.9l-35.1,95.5c-1.7,4.3-3.3,7.9-4.7,11
		c-1.4,3.1-3.1,5.3-4.9,6.8c-2.1,1.8-4.7,2.9-7.6,3.3c-2.9,0.4-6.8,0.6-11.6,0.6v-5.5c4.4,0,7.8-0.4,10.2-1.1
		c2.4-0.7,4.7-2.2,6.9-4.5c1.2-1.2,2.4-3.5,3.7-6.8c1.3-3.3,2.9-7.8,4.8-13.5L622.3,80.6z"/>
</g>
</svg>
